<svg width="637" height="172" viewBox="0 0 637 172" fill="none" xmlns="http://www.w3.org/2000/svg">
<path d="M81.0194 122.801C81.0194 124.504 80.4415 125.936 79.2858 127.097C78.1301 128.258 76.7047 128.839 75.0097 128.839C73.3147 128.839 71.8893 128.258 70.7336 127.097C69.5779 125.936 69 124.504 69 122.801V44.1985C69 42.4182 69.5779 40.9863 70.7336 39.9026C71.8893 38.7416 73.3147 38.161 75.0097 38.161H122.741C124.513 38.161 125.938 38.7029 127.017 39.7865C128.095 40.7928 128.635 42.1473 128.635 43.8502C128.635 45.4757 128.095 46.7915 127.017 47.7978C125.938 48.804 124.513 49.3071 122.741 49.3071H81.0194V122.801Z" fill="#92C79B"/>
<path d="M203.869 38.8577C206.026 39.8639 207.105 41.2959 207.105 43.1536C207.105 44.1598 206.835 45.2047 206.296 46.2884L174.514 111.888C171.74 117.615 168.427 122.066 164.575 125.24C160.799 128.336 156.716 129.884 152.324 129.884C148.78 129.884 145.39 128.839 142.154 126.749C141.229 126.207 140.497 125.511 139.958 124.659C139.496 123.73 139.265 122.801 139.265 121.873C139.265 120.944 139.573 119.976 140.189 118.97C141.191 117.267 142.732 116.416 144.812 116.416C146.122 116.416 147.393 116.764 148.626 117.461C149.859 118.157 151.091 118.506 152.324 118.506C154.404 118.506 156.523 117.538 158.681 115.603C160.915 113.591 162.88 110.804 164.575 107.243L165.73 104.805L130.597 46.8689C129.98 45.8627 129.672 44.8177 129.672 43.7341C129.672 41.8764 130.712 40.367 132.793 39.206C133.794 38.5868 134.873 38.2772 136.029 38.2772C137.878 38.2772 139.38 39.2834 140.536 41.2959L170.816 94.3558L196.357 41.7603C197.512 39.3608 199.053 38.161 200.98 38.161C201.904 38.161 202.867 38.3933 203.869 38.8577Z" fill="#92C79B"/>
<path d="M234.512 122.801C234.512 124.504 233.935 125.936 232.779 127.097C231.7 128.258 230.275 128.839 228.503 128.839C226.808 128.839 225.382 128.258 224.227 127.097C223.071 125.936 222.493 124.504 222.493 122.801V44.1985C222.493 42.4182 223.071 40.9863 224.227 39.9026C225.382 38.7416 226.808 38.161 228.503 38.161H251.617C257.318 38.161 262.404 39.4382 266.872 41.9925C271.418 44.5468 274.924 48.1074 277.389 52.6742C279.932 57.2409 281.203 62.427 281.203 68.2322C281.203 73.8826 279.932 78.9139 277.389 83.3258C274.924 87.7378 271.418 91.1823 266.872 93.6592C262.404 96.1361 257.318 97.3745 251.617 97.3745H234.512V122.801ZM251.617 86.2285C256.856 86.2285 261.171 84.5643 264.561 81.236C267.951 77.8302 269.646 73.4956 269.646 68.2322C269.646 62.7366 267.951 58.2085 264.561 54.6479C261.171 51.0874 256.856 49.3071 251.617 49.3071H234.512V86.2285H251.617Z" fill="#92C79B"/>
<path d="M336.22 37C345.081 37 352.978 38.9738 359.913 42.9213C366.924 46.8689 372.356 52.3645 376.208 59.4082C380.138 66.4519 382.102 74.4632 382.102 83.4419C382.102 92.4207 380.138 100.471 376.208 107.592C372.356 114.635 366.962 120.131 360.028 124.079C353.094 128.026 345.158 130 336.22 130C327.283 130 319.309 128.026 312.297 124.079C305.363 120.131 299.97 114.635 296.117 107.592C292.265 100.471 290.339 92.4207 290.339 83.4419C290.339 74.4632 292.265 66.4519 296.117 59.4082C299.97 52.3645 305.363 46.8689 312.297 42.9213C319.309 38.9738 327.283 37 336.22 37ZM336.22 47.9139C329.594 47.9139 323.662 49.4619 318.422 52.5581C313.26 55.6542 309.215 59.9114 306.287 65.3296C303.36 70.7478 301.896 76.7853 301.896 83.4419C301.896 90.0986 303.36 96.1361 306.287 101.554C309.215 106.973 313.299 111.268 318.538 114.442C323.777 117.538 329.671 119.086 336.22 119.086C342.769 119.086 348.664 117.538 353.903 114.442C359.142 111.268 363.226 106.973 366.153 101.554C369.081 96.1361 370.545 90.0986 370.545 83.4419C370.545 76.7853 369.081 70.7478 366.153 65.3296C363.226 59.9114 359.142 55.6542 353.903 52.5581C348.741 49.4619 342.847 47.9139 336.22 47.9139Z" fill="#92C79B"/>
<path d="M467.266 119.434C468.422 120.673 469 122.027 469 123.498C469 124.891 468.422 126.169 467.266 127.33C466.188 128.413 464.801 128.955 463.106 128.955C462.181 128.955 461.295 128.8 460.448 128.491C459.677 128.104 459.022 127.6 458.483 126.981L425.314 88.2022H412.948V122.801C412.948 124.504 412.37 125.936 411.214 127.097C410.136 128.258 408.71 128.839 406.938 128.839C405.243 128.839 403.818 128.258 402.662 127.097C401.506 125.936 400.929 124.504 400.929 122.801V44.1985C400.929 42.4182 401.506 40.9863 402.662 39.9026C403.818 38.7416 405.243 38.161 406.938 38.161C408.71 38.161 410.136 38.7416 411.214 39.9026C412.37 40.9863 412.948 42.4182 412.948 44.1985V77.5206H424.852L455.94 40.1348C457.096 38.7416 458.522 38.0449 460.217 38.0449C461.912 38.0449 463.298 38.6642 464.377 39.9026C465.379 40.9863 465.88 42.2247 465.88 43.618C465.88 45.0112 465.34 46.3658 464.262 47.6816L435.022 81.8165L467.266 119.434Z" fill="#92C79B"/>
<path d="M483 71C483 49.4609 500.461 32 522 32V32V75.5455C522 95.1265 506.126 111 486.545 111V111C484.587 111 483 109.413 483 107.455V71Z" fill="#FCDD6C"/>
<path d="M512.908 85.2269C529.426 71.3182 554.091 73.4332 568 89.951V89.951L535.373 117.424C520.357 130.069 497.934 128.146 485.289 113.13V113.13C484.025 111.628 484.217 109.386 485.719 108.121L512.908 85.2269Z" fill="#E59C0F"/>
<path d="M496.373 73.7409C503.758 53.4495 526.195 42.9871 546.486 50.3726V50.3726L531.898 90.4536C525.184 108.9 504.787 118.412 486.34 111.698V111.698C484.495 111.026 483.544 108.986 484.216 107.142L496.373 73.7409Z" fill="#92C79B"/>
<circle cx="543.5" cy="83.5" r="3.5" fill="white"/>
</svg>
